<?xml version="1.0" standalone="no"?>
<!DOCTYPE svg PUBLIC "-//W3C//DTD SVG 20010904//EN"
 "http://www.w3.org/TR/2001/REC-SVG-20010904/DTD/svg10.dtd">
<svg version="1.0" xmlns="http://www.w3.org/2000/svg"
 width="260.000000pt" height="260.000000pt" viewBox="0 0 260.000000 260.000000"
 preserveAspectRatio="xMidYMid meet">
<metadata>
Created by potrace 1.11, written by Peter Selinger 2001-2013
</metadata>
<g transform="translate(0.000000,260.000000) scale(0.100000,-0.100000)"
fill="#000000" stroke="none">
<path d="M995 2310 c-6 -11 -9 -76 -3 -85 4 -6 58 -9 132 -9 l126 2 0 -359 c0
-197 3 -360 8 -360 33 -7 102 -3 103 6 1 5 3 163 4 350 1 187 3 345 4 352 1 8
33 12 109 11 167 0 152 -5 152 47 0 29 -4 45 -12 46 -87 3 -621 3 -623 -1z"/>
<path d="M860 1323 c0 -20 53 -93 73 -99 22 -7 828 -6 835 1 6 6 -38 78 -56
93 -12 9 -114 12 -434 12 -230 0 -418 -3 -418 -7z"/>
<path d="M1279 1059 c-120 -18 -197 -100 -204 -215 -4 -74 28 -140 85 -176 24
-15 86 -42 139 -59 121 -41 161 -75 161 -140 0 -92 -71 -150 -176 -143 -54 3
-86 16 -149 59 -42 28 -54 26 -78 -18 l-19 -32 38 -32 c91 -80 253 -98 364
-42 73 36 119 109 127 199 11 123 -41 182 -213 244 -126 45 -174 83 -174 135
0 75 55 122 145 126 52 2 81 -6 127 -37 40 -27 62 -23 84 17 18 34 18 35 -1
50 -67 51 -170 77 -256 64z"/>
</g>
</svg>
